<mxfile host="app.diagrams.net" agent="Mozilla/5.0 (X11; Ubuntu; Linux x86_64; rv:141.0) Gecko/20100101 Firefox/141.0" version="28.0.7">
  <diagram name="Page-1" id="T6l5kbxst5cVdcprUycA">
    <mxGraphModel dx="1674" dy="928" grid="1" gridSize="10" guides="1" tooltips="1" connect="1" arrows="1" fold="1" page="1" pageScale="1" pageWidth="1169" pageHeight="827" math="0" shadow="0">
      <root>
        <mxCell id="0" />
        <mxCell id="1" parent="0" />
        <mxCell id="AFmJNcBgNHimTuKXfB_4-49" value="" style="group" vertex="1" connectable="0" parent="1">
          <mxGeometry x="200" y="60" width="80" height="130" as="geometry" />
        </mxCell>
        <mxCell id="AFmJNcBgNHimTuKXfB_4-50" value="" style="group" vertex="1" connectable="0" parent="AFmJNcBgNHimTuKXfB_4-49">
          <mxGeometry y="20.180000000000007" width="80" height="80" as="geometry" />
        </mxCell>
        <mxCell id="AFmJNcBgNHimTuKXfB_4-51" value="" style="whiteSpace=wrap;html=1;aspect=fixed;" vertex="1" parent="AFmJNcBgNHimTuKXfB_4-50">
          <mxGeometry width="80" height="80" as="geometry" />
        </mxCell>
        <mxCell id="AFmJNcBgNHimTuKXfB_4-52" value="" style="pointerEvents=1;verticalLabelPosition=bottom;shadow=0;dashed=0;align=center;html=1;verticalAlign=top;shape=mxgraph.electrical.waveforms.sine_wave;" vertex="1" parent="AFmJNcBgNHimTuKXfB_4-50">
          <mxGeometry x="5" y="11.819999999999993" width="70" height="16.18" as="geometry" />
        </mxCell>
        <mxCell id="AFmJNcBgNHimTuKXfB_4-53" value="" style="pointerEvents=1;verticalLabelPosition=bottom;shadow=0;dashed=0;align=center;html=1;verticalAlign=top;shape=mxgraph.electrical.waveforms.sine_wave;" vertex="1" parent="AFmJNcBgNHimTuKXfB_4-50">
          <mxGeometry x="5" y="51.81999999999999" width="70" height="16.18" as="geometry" />
        </mxCell>
        <mxCell id="AFmJNcBgNHimTuKXfB_4-54" value="" style="endArrow=none;html=1;rounded=0;" edge="1" parent="AFmJNcBgNHimTuKXfB_4-50">
          <mxGeometry width="50" height="50" relative="1" as="geometry">
            <mxPoint x="35" y="64.91" as="sourcePoint" />
            <mxPoint x="45" y="54.91" as="targetPoint" />
          </mxGeometry>
        </mxCell>
        <mxCell id="AFmJNcBgNHimTuKXfB_4-55" value="n GHz" style="text;html=1;align=center;verticalAlign=middle;resizable=0;points=[];autosize=1;strokeColor=none;fillColor=none;" vertex="1" parent="AFmJNcBgNHimTuKXfB_4-49">
          <mxGeometry x="10" y="100" width="60" height="30" as="geometry" />
        </mxCell>
        <mxCell id="AFmJNcBgNHimTuKXfB_4-56" value="HPF" style="text;html=1;align=center;verticalAlign=middle;resizable=0;points=[];autosize=1;strokeColor=none;fillColor=none;" vertex="1" parent="AFmJNcBgNHimTuKXfB_4-49">
          <mxGeometry x="15" width="50" height="30" as="geometry" />
        </mxCell>
        <mxCell id="AFmJNcBgNHimTuKXfB_4-57" value="" style="group" vertex="1" connectable="0" parent="1">
          <mxGeometry x="80" y="60" width="80" height="130" as="geometry" />
        </mxCell>
        <mxCell id="AFmJNcBgNHimTuKXfB_4-58" value="n - n GHz" style="text;html=1;align=center;verticalAlign=middle;resizable=0;points=[];autosize=1;strokeColor=none;fillColor=none;" vertex="1" parent="AFmJNcBgNHimTuKXfB_4-57">
          <mxGeometry x="5" y="100" width="70" height="30" as="geometry" />
        </mxCell>
        <mxCell id="AFmJNcBgNHimTuKXfB_4-59" value="BPF" style="text;html=1;align=center;verticalAlign=middle;resizable=0;points=[];autosize=1;strokeColor=none;fillColor=none;" vertex="1" parent="AFmJNcBgNHimTuKXfB_4-57">
          <mxGeometry x="15" width="50" height="30" as="geometry" />
        </mxCell>
        <mxCell id="AFmJNcBgNHimTuKXfB_4-60" value="" style="whiteSpace=wrap;html=1;aspect=fixed;" vertex="1" parent="AFmJNcBgNHimTuKXfB_4-57">
          <mxGeometry y="20.180000000000007" width="80" height="80" as="geometry" />
        </mxCell>
        <mxCell id="AFmJNcBgNHimTuKXfB_4-61" value="" style="pointerEvents=1;verticalLabelPosition=bottom;shadow=0;dashed=0;align=center;html=1;verticalAlign=top;shape=mxgraph.electrical.waveforms.sine_wave;" vertex="1" parent="AFmJNcBgNHimTuKXfB_4-57">
          <mxGeometry x="5" y="52" width="70" height="16.18" as="geometry" />
        </mxCell>
        <mxCell id="AFmJNcBgNHimTuKXfB_4-62" value="" style="group" vertex="1" connectable="0" parent="AFmJNcBgNHimTuKXfB_4-57">
          <mxGeometry x="5" y="71" width="70" height="16.180000000000007" as="geometry" />
        </mxCell>
        <mxCell id="AFmJNcBgNHimTuKXfB_4-63" value="" style="pointerEvents=1;verticalLabelPosition=bottom;shadow=0;dashed=0;align=center;html=1;verticalAlign=top;shape=mxgraph.electrical.waveforms.sine_wave;" vertex="1" parent="AFmJNcBgNHimTuKXfB_4-62">
          <mxGeometry width="70" height="16.18" as="geometry" />
        </mxCell>
        <mxCell id="AFmJNcBgNHimTuKXfB_4-64" value="" style="endArrow=none;html=1;rounded=0;" edge="1" parent="AFmJNcBgNHimTuKXfB_4-62">
          <mxGeometry width="50" height="50" relative="1" as="geometry">
            <mxPoint x="30" y="14.090000000000003" as="sourcePoint" />
            <mxPoint x="40" y="4.090000000000003" as="targetPoint" />
          </mxGeometry>
        </mxCell>
        <mxCell id="AFmJNcBgNHimTuKXfB_4-65" value="" style="group" vertex="1" connectable="0" parent="AFmJNcBgNHimTuKXfB_4-57">
          <mxGeometry x="5" y="30" width="70" height="16.180000000000007" as="geometry" />
        </mxCell>
        <mxCell id="AFmJNcBgNHimTuKXfB_4-66" value="" style="pointerEvents=1;verticalLabelPosition=bottom;shadow=0;dashed=0;align=center;html=1;verticalAlign=top;shape=mxgraph.electrical.waveforms.sine_wave;" vertex="1" parent="AFmJNcBgNHimTuKXfB_4-65">
          <mxGeometry width="70" height="16.18" as="geometry" />
        </mxCell>
        <mxCell id="AFmJNcBgNHimTuKXfB_4-67" value="" style="endArrow=none;html=1;rounded=0;" edge="1" parent="AFmJNcBgNHimTuKXfB_4-65">
          <mxGeometry width="50" height="50" relative="1" as="geometry">
            <mxPoint x="30" y="14.090000000000003" as="sourcePoint" />
            <mxPoint x="40" y="4.090000000000003" as="targetPoint" />
          </mxGeometry>
        </mxCell>
        <mxCell id="AFmJNcBgNHimTuKXfB_4-68" value="AMP" style="triangle;whiteSpace=wrap;html=1;" vertex="1" parent="1">
          <mxGeometry x="340" y="80" width="60" height="80" as="geometry" />
        </mxCell>
        <mxCell id="AFmJNcBgNHimTuKXfB_4-69" value="" style="triangle;whiteSpace=wrap;html=1;" vertex="1" parent="1">
          <mxGeometry x="320" y="200" width="60" height="80" as="geometry" />
        </mxCell>
      </root>
    </mxGraphModel>
  </diagram>
</mxfile>
